PathFileType	4	(X/Y/Z)	64_2_79_p0_0-789.trc
DataRate	CameraRate	NumFrames	NumMarkers	Units	OrigDataRate	OrigDataStartFrame	OrigNumFrames
60.0	60.0	6	27	m	60.0	296	790
Frame#	Time	RHip			RKnee			RAnkle			RBigToe			RSmallToe			RHeel			LHip			LKnee			LAnkle			LBigToe			LSmallToe			LHeel			Neck			Head			Nose			RShoulder			RElbow			RWrist			RThumb			RIndex			RPinky			LShoulder			LElbow			LWrist			LThumb			LIndex			LPinky			
		X1	Y1	Z1	X2	Y2	Z2	X3	Y3	Z3	X4	Y4	Z4	X5	Y5	Z5	X6	Y6	Z6	X7	Y7	Z7	X8	Y8	Z8	X9	Y9	Z9	X10	Y10	Z10	X11	Y11	Z11	X12	Y12	Z12	X13	Y13	Z13	X14	Y14	Z14	X15	Y15	Z15	X16	Y16	Z16	X17	Y17	Z17	X18	Y18	Z18	X19	Y19	Z19	X20	Y20	Z20	X21	Y21	Z21	X22	Y22	Z22	X23	Y23	Z23	X24	Y24	Z24	X25	Y25	Z25	X26	Y26	Z26	X27	Y27	Z27	
296	4.933333333333334	0.3161347146716961	0.6915308350692355	0.5829749781971121	0.28982805015202046	0.9354577491681421	0.9520528191908265	0.26935466893632254	1.189276162802099	1.3160841106299679	0.2846244474075416	1.057500996079515	1.4098803102354958	0.3506412296588502	1.0674597798489636	1.391304274423975	0.22097512402880196	1.2990243721128127	1.338044556768545	0.1009470971361096	0.6881614010386811	0.5931225471353714	0.09449719111980612	0.9126300505947902	0.9656549859019121	0.07705851427503686	1.1892682982367815	1.3545054421090126	0.15579787769722764	0.9863565631407292	1.4235861000532262	0.07350826304039614	1.05322811504619	1.4138109357521902	0.0739675199994319	1.260205431571945	1.3676866186215728	0.23588924413399048	0.45346021716395896	0.1723585364108346	0.2861746939240843	0.24435332349865502	0.024727673770673295	0.2831368687355943	0.2704528058194018	0.15356014701942805	0.38728680963728734	0.5027191456933114	0.2378075736708359	0.4156091996180238	0.7084903591859854	0.4026183137915343	0.46549430416979987	0.5918571907017278	0.6094973882561106	0.4553173763060593	0.49471399847009884	0.7098012508699644	0.4574475256175928	0.5140827191842583	0.7204503960789075	0.46013962925710666	0.5587850339761515	0.7237101422668124	0.09679645663531199	0.44484736460354163	0.2472389938740019	0.003315953318342583	0.5655734889722522	0.43936094168415385	0.07856246364674248	0.5135553054213057	0.629079989636312	0.1496124643994159	0.49005628073529767	0.7173854285504224	0.1424679167152106	0.44110057055633073	0.7422109951149829	0.08409725106265006	0.5094834077642362	0.7371753786917264
297	4.95	0.3160851105921572	0.6995632310372789	0.5924860918997071	0.2932400907085245	0.9414397159825142	0.950853574665291	0.2681164844521972	1.1916264080687102	1.320140843151002	0.28492396247160284	1.0566776743177875	1.4097280803721934	0.35469660226883615	1.0693377961390478	1.390659724393112	0.22158658607996992	1.3004619506104185	1.342076263977918	0.11286854530384663	0.6839879355137013	0.6015374524480275	0.09343131161425738	0.9189148431444042	0.9732216080664852	0.07707711591428017	1.1893126315664706	1.3545626360523555	0.1581517237099226	1.0056336184792076	1.4234595776727568	0.07411324744048292	1.055069061851881	1.4182028932113657	0.07385674786002472	1.2616858810250524	1.3677838611319024	0.2321349076737186	0.45092993423405686	0.17355126332148874	0.28617905992720993	0.24442499063380824	0.024694246306837333	0.28318311357238085	0.2703164946194995	0.1536059809508559	0.3872664550835181	0.5027463611320255	0.23779437048627086	0.4075485451492121	0.7194644655462226	0.39544646959181634	0.46604415754833184	0.599720743835405	0.6035103956136078	0.45571606931583897	0.49152605442288805	0.7066350801997651	0.4645739474729805	0.4998625428505183	0.7185259615885181	0.4570423256838425	0.5561804637837521	0.72418355207521	0.09680890344259682	0.4447767640498067	0.24728337113284254	-0.005218895976854784	0.5749242452611677	0.43302252227365706	0.08005462026750346	0.5009917757681507	0.6324185495809517	0.1515912846328327	0.4649239447436686	0.7197406163976074	0.14334415305941253	0.4389705357385065	0.7394966866017019	0.08526842242952086	0.49630695326226965	0.7361741409821346
298	4.966666666666667	0.3163027615010691	0.6960288911804776	0.5898926295000625	0.2898757366983561	0.9351705034599767	0.952194403338893	0.2682976798605892	1.1910658515666375	1.320249206077422	0.2841844269555844	1.0762997438607858	1.413629482234802	0.3547473540279379	1.069696807584124	1.3907559346328038	0.2214669385802091	1.30330357661904	1.3421597688380358	0.11340544936650095	0.6827349561405883	0.5982860145285527	0.0907890069007985	0.914444289020946	0.9704357837449791	0.07668029555116802	1.1926691550808	1.3551688763504972	0.15815970579459887	1.009853103442629	1.4269558096193724	0.0732594656612322	1.058709161286998	1.4178966932128598	0.07457490178504643	1.2618355313792626	1.3707978532538714	0.24019388851749665	0.44031590333347537	0.1780528689678003	0.2862948562695918	0.24437450661298987	0.02466626658672181	0.2799743883637275	0.26796849848864723	0.15488117870619894	0.3874558176245313	0.5039004181426358	0.24096546746422057	0.4150405509535302	0.6948547109990338	0.4028087886463924	0.4734728477460037	0.5852421760512807	0.5991059523999678	0.4714812655866118	0.48030258242722723	0.7107741838132631	0.4864761247271775	0.4811116031713584	0.7208031882184079	0.45833868655936966	0.5660863102239281	0.7216682777566082	0.09687685974183452	0.4445040032748574	0.24740086138083545	-0.0052653619458454155	0.5751256752174406	0.43308779468500297	0.08138176614802002	0.48869280581876867	0.6355037094871457	0.1491696030798845	0.44719157200369136	0.7199935898031843	0.14359405770276776	0.4261298103105154	0.7386273676032497	0.08424618433028255	0.4981619562667557	0.7331057859029295
299	4.983333333333333	0.30760070013980084	0.7041947357286441	0.5803321807883535	0.28962478766158795	0.9315682488795397	0.9489159899257371	0.2681771763836929	1.1914537867557753	1.3201914341791046	0.28420866154628993	1.076241541170971	1.4136065094634918	0.3547798943035163	1.0695382802753624	1.3907841125274845	0.2252295009463223	1.302415013794048	1.3371881362707092	0.09938227768208746	0.7017064125664905	0.5894102175191203	0.08965242860391992	0.9122760685552773	0.9700092080510331	0.07719385858492787	1.18879923956103	1.354521385672911	0.15359888444892633	1.0195578499255464	1.4276889358916802	0.0739405500166201	1.0602129811461727	1.4220902106819724	0.07430387289611788	1.2604881034297044	1.3676682705223366	0.24020274641118297	0.4403016299386997	0.17803605992447458	0.28625858453996433	0.24425964460893967	0.024752556198168855	0.2832407414843797	0.2702514013028405	0.15378641313748329	0.387477001306812	0.503850862432793	0.24104120374213386	0.4151225812621426	0.694524898644337	0.4028707322468996	0.4766092541374633	0.5890240446540548	0.6019672351608178	0.4894003052037632	0.46311590268240893	0.7162545755698931	0.5040881531599716	0.46178188132086134	0.7240933891281893	0.46932884903627775	0.5573486328020613	0.7228392068815086	0.09684199378553164	0.4445851914844901	0.24729660338543866	-0.005721889693339118	0.5738643933220746	0.4292511387856582	0.0816334027125442	0.48547729936305467	0.628735445281685	0.1468824817590803	0.4315536932304195	0.7201796411057075	0.14361694326143543	0.4246918007084625	0.7378852392087585	0.0805628054051411	0.4950664444902613	0.729824984849793
300	5.0	0.3041587904061602	0.7063316036357894	0.5881652697020618	0.29315883859884456	0.9238924834068439	0.9496816685166014	0.2681517736462777	1.1918583777780465	1.320144358283062	0.2850375037075016	1.0607586099838384	1.41368587944802	0.3506231348770889	1.0677040682424626	1.3915609107821718	0.22512251324260785	1.303186283210605	1.336756785336907	0.10835437492037296	0.699001394513339	0.6035096223681523	0.08854114444978643	0.9180845386962354	0.9774956295504921	0.0726883924444158	1.1851944902352658	1.351337067300461	0.15387636725266868	1.0041908442308916	1.4234073897646182	0.07316564734536156	1.0581835362007337	1.4178848695950612	0.07017437755408665	1.2514594166625135	1.363481212194643	0.24411631559710822	0.4442133346592968	0.1803549942996152	0.29352615594319903	0.23656818023017717	0.0326945086000439	0.2832320839296776	0.270359002770197	0.15380140245423538	0.38371786205795116	0.5029657696905776	0.24559561725449816	0.41180607346903475	0.7049628930413908	0.39965136755558556	0.47684840875657797	0.5888432698420988	0.601764568257593	0.5000871115702427	0.45102353820956337	0.7141118929721147	0.5180588996466516	0.45534315337727754	0.7241867339600249	0.4733940267186982	0.5598205495662772	0.7219137705681342	0.096858306108958	0.4447525122320676	0.24728538170517717	0.0035911737270581043	0.5641734522405341	0.43589738334639294	0.08316652184398877	0.473388519319312	0.6319647690661169	0.14663049905544756	0.42492737048779816	0.7142403913898087	0.14309012151296552	0.41945442434894553	0.7307896164554283	0.08057061628832829	0.49493525590490933	0.7296152214502933
301	5.016666666666667	0.3042596647417105	0.7096488361314689	0.5913935378044056	0.29189700854339257	0.9400213988214525	0.9518418433382189	0.2682973173573519	1.19167306322279	1.3202194611863367	0.2840302214716656	1.0763689667758753	1.4138095375364408	0.35063437195631336	1.0678568740911705	1.3916291332485646	0.22529758099839076	1.3029410315809622	1.3367320997852032	0.09866512708833725	0.7130513018918223	0.6049521845818151	0.08839776153557069	0.9184453092428143	0.9775812405425626	0.07273551171371605	1.1853279734283122	1.3512730543858051	0.15389977108347397	1.0041939176832586	1.4234132812857303	0.07328580828734596	1.05285330736293	1.4138028649816459	0.07020793875778122	1.2519650717382944	1.363466365820672	0.24411554399246033	0.44416914828281223	0.18037881286514146	0.29353754128985415	0.2366685688289827	0.03268197101475141	0.2830833494862002	0.271769913110221	0.15673462389560827	0.38371493787709876	0.5029322965950048	0.2456070612259507	0.4117812154847102	0.7049305161595009	0.3995371706145941	0.476459469917251	0.5846958526811442	0.5954138649954294	0.513556905068571	0.44796229831423734	0.7182496503539706	0.5224000227370525	0.4676729033195224	0.7217924219371847	0.4917690931943508	0.5484825461677479	0.7194888271851438	0.09683557655501414	0.4446425215519657	0.2473666205986264	0.003276654352104406	0.5626175938469843	0.4321230458448527	0.08002482445839333	0.4699329372065933	0.6329058427888918	0.14663700908992372	0.4214001688396303	0.7112936713753244	0.14304844139588876	0.41859221889411813	0.7304688679103305	0.08018633895129403	0.4907340678569473	0.722332459246277
